# xmcd
#
# Track frame offsets: 
#        150
#        23632
#        46350
#        62070
#        82002
#        96492
#        120205
#        140592
#        157775
#        172822
#
# Disc length: 2597 seconds
#
# Revision: 1
# Processed by: cddbd v1.5.2PL0 Copyright (c) Steve Scherf et al.
# Submitted via: ExactAudioCopy v1.0b3
#
DISCID=750a230a
DTITLE=FOO FIGHTERS - IN YOUR HONOR
DYEAR=2005
DGENRE=Alternative Rock
TTITLE0=Still
TTITLE1=What If I Do
TTITLE2=Miracle
TTITLE3=Another Round
TTITLE4=Friend Of A Friend
TTITLE5=Over And Out
TTITLE6=On The Mend
TTITLE7=Virginia Moon
TTITLE8=Cold Day In The Sun
TTITLE9=Razor
EXTD=
EXTT0=
EXTT1=
EXTT2=
EXTT3=
EXTT4=
EXTT5=
EXTT6=
EXTT7=
EXTT8=
EXTT9=
PLAYORDER=
